<?xml version="1.0" encoding="utf-8"?>
<!-- Generator: Adobe Illustrator 19.0.0, SVG Export Plug-In . SVG Version: 6.00 Build 0)  -->
<svg version="1.1" id="Layer_1" xmlns="http://www.w3.org/2000/svg" xmlns:xlink="http://www.w3.org/1999/xlink" x="0px" y="0px"
	 viewBox="0 0 300 300" style="enable-background:new 0 0 300 300;" xml:space="preserve">
<style type="text/css">
	.st0{fill:#585D75;}
	.st1{fill:#7D83AA;}
	.st2{fill:#D35B5B;}
	.st3{fill:#F2F2F2;}
	.st4{fill:#FF7BAC;}
	.st5{fill:#333333;}
	.st6{fill:#FFFFFF;}
</style>
<g id="XMLID_3_">
	<polyline id="XMLID_16_" class="st0" points="81,44 81,91 98,91 98,44 	"/>
	<polyline id="XMLID_24_" class="st1" points="208,44 208,39.2 195.1,27 94.6,27 81,39.6 81,44 	"/>
	<polyline id="XMLID_23_" class="st0" points="188,44 188,91 208,91 208,44 	"/>
	<line id="XMLID_7_" class="st0" x1="98" y1="44" x2="188" y2="44"/>
	<polygon id="XMLID_1_" class="st1" points="241,68.4 233.4,78.4 226,68.5 218.7,78.5 211.5,68.5 204.3,78.5 197.1,68.5 190,78.5 
		182.8,68.5 175.7,78.5 168.6,68.5 161.4,78.5 154.3,68.5 147.1,78.5 140,68.5 132.8,78.5 125.7,68.5 118.5,78.5 111.4,68.5 
		104.3,78.5 97.1,68.5 90,78.5 82.8,68.5 75.7,78.5 68.5,68.5 60.8,78.5 53,68.5 53,110 241,110.3 	"/>
	<path id="XMLID_2_" class="st1" d="M224,272.7H70c-9.4,0-17-7.6-17-17V106.3c0-9.4,7.6-17,17-17h154c9.4,0,17,7.6,17,17v149.3
		C241,265.1,233.4,272.7,224,272.7z"/>
</g>
<g id="XMLID_17_">
	<path id="XMLID_5_" class="st2" d="M77.4,193.5c-0.3-34.3,41.1-41.2,69.1-41c28.9,0.2,69.3,8.5,69.1,42.8
		c-0.2,28.2-35,59.2-71.5,58C109.1,252.1,77.6,221.6,77.4,193.5z"/>
	<path id="XMLID_9_" class="st3" d="M114.9,155.7c0,0,7.4,6.8-5.2,11.6s-12.3-5.4-12.3-5.4C101,159.6,110.1,156.6,114.9,155.7z"/>
	<path id="XMLID_14_" class="st4" d="M138,199.2c0,0-6.1-4.1-10.3-4.7c-19.8-3.1-42.6,6.4-42.9,23.4c10.9,17.4,33.9,35.4,59.2,35.4
		s48-10.5,65.3-36.6c-0.3-15.8-27.2-23.8-44.8-23.8C147.8,192.8,138,199.2,138,199.2z"/>
	<path id="XMLID_8_" class="st3" d="M205.3,170.5c0,0-0.1,6.9-10.2,0.8s-3.5-9.5-3.5-9.5S202.3,166.4,205.3,170.5z"/>
	<path id="XMLID_10_" class="st3" d="M136.4,152.7c0,0,3.4,3.9-6.7,5.1c-8.7,1.1-7.5-3.6-7.5-3.6
		C125.3,153.6,134.8,152.7,136.4,152.7z"/>
	<path id="XMLID_11_" class="st3" d="M86.8,220.8c0,0,4-5.9,12.3,2.6c8.2,8.5,2,12.9,2,12.9C93.3,230.4,86.8,220.8,86.8,220.8z"/>
	<path id="XMLID_13_" class="st3" d="M206.5,221c0,0-4-4.6-12.2,3.9c-8.2,8.5-2.9,12-2.9,12C199.1,231,206.5,221,206.5,221z"/>
	<g id="XMLID_15_">
		<path id="XMLID_32_" class="st5" d="M164.5,192.9c0,0-0.7,0.1-1.9,0.2c-1.2,0.1-2.9,0.3-4.9,0.5c-1,0.1-2.1,0.2-3.3,0.4
			c-1.2,0.2-2.4,0.4-3.6,0.7c-1.2,0.3-2.5,0.6-3.8,1c-1.3,0.4-2.5,0.9-3.8,1.4c-1.2,0.5-2.4,1.1-3.6,1.7c-1.2,0.6-2.3,1.3-3.3,2.1
			c-2,1.5-3.8,3.1-5.2,4.6c-0.7,0.7-1.3,1.4-1.9,2.1c-0.5,0.6-1,1.2-1.4,1.7c-0.7,0.9-1.1,1.5-1.1,1.5s0.1-0.1,0.2-0.4
			c0.2-0.3,0.4-0.7,0.7-1.2c0.7-1,1.6-2.4,3-4c1.3-1.5,3-3.3,5-4.9c1-0.8,2.1-1.6,3.3-2.2c1.2-0.7,2.4-1.3,3.7-1.8
			c1.3-0.6,2.6-1,3.9-1.4c1.3-0.4,2.6-0.7,3.9-1c2.5-0.5,4.9-0.6,7-0.8c2-0.1,3.7-0.1,4.9-0.2C163.8,192.9,164.5,192.9,164.5,192.9z
			"/>
	</g>
</g>
<g id="XMLID_22_">
	<g id="XMLID_12_">
		<circle id="XMLID_18_" class="st5" cx="105.4" cy="123.9" r="18.1"/>
		<path id="XMLID_20_" class="st6" d="M90.6,122c3.4-11,11.4-11.2,11.4-11.2v5.3c0,0-5.9,1.9-6.4,5.9H90.6z"/>
	</g>
	<g id="XMLID_4_">
		<circle id="XMLID_19_" class="st5" cx="184.8" cy="123.9" r="18.1"/>
		<path id="XMLID_21_" class="st6" d="M171.5,122c3.5-11,10.5-11.2,10.5-11.2v5.4c0,0-5,1.8-5.5,5.8H171.5z"/>
	</g>
</g>
</svg>
