<?xml version="1.0" encoding="utf-8"?>
<!-- Generator: Adobe Illustrator 19.0.0, SVG Export Plug-In . SVG Version: 6.00 Build 0)  -->
<svg version="1.1" id="Layer_1" xmlns="http://www.w3.org/2000/svg" xmlns:xlink="http://www.w3.org/1999/xlink" x="0px" y="0px"
	 viewBox="0 0 300 300" style="enable-background:new 0 0 300 300;" xml:space="preserve">
<style type="text/css">
	.st0{fill:#585D75;}
	.st1{fill:#7D83AA;}
	.st2{fill:none;}
	.st3{fill:#D35B5B;}
	.st4{fill:#F2F2F2;}
	.st5{fill:#FF7BAC;}
	.st6{fill:#333333;}
	.st7{fill:#FFFFFF;}
</style>
<g>
	<polyline id="XMLID_6_" class="st0" points="72.8,24.1 72.8,80.8 96.9,80.8 96.9,24.1 	"/>
	<polyline id="XMLID_23_" class="st0" points="203.2,24.1 203.2,80.8 227.4,80.8 227.4,24.1 	"/>
	<line class="st1" x1="203.2" y1="0" x2="96.9" y2="0"/>
	<polyline class="st1" points="96.9,0 72.8,24.1 227.4,24.1 203.2,0 	"/>
</g>
<line id="XMLID_7_" class="st2" x1="90.9" y1="24.1" x2="199.5" y2="24.1"/>
<polygon id="XMLID_1_" class="st1" points="263.4,53.6 254.2,65.6 245.3,53.7 236.5,65.7 227.8,53.7 219.1,65.7 210.4,53.7 
	201.9,65.7 193.2,53.7 184.6,65.7 176.1,53.7 167.4,65.7 158.8,53.7 150.1,65.7 141.6,53.7 132.9,65.7 124.3,53.7 115.6,65.7 
	107.1,53.7 98.5,65.7 89.8,53.7 81.2,65.7 72.6,53.7 64,65.7 55.3,53.7 46,65.7 36.6,53.7 36.6,103.7 263.4,104.1 "/>
<g>
	<rect x="53.3" y="151.8" class="st3" width="193.5" height="129.3"/>
	<path id="XMLID_8_" class="st4" d="M220.9,175.4c0,0-0.7,9.6-12.9,2.2c-12.2-7.4-3.5-13.3-3.5-13.3S217.3,170.5,220.9,175.4z"/>
	<path id="XMLID_9_" class="st4" d="M111.2,158.2c0,0,9,8.9-6.2,14.7c-15.2,5.8-15.1-6.9-15.1-6.9
		C94.2,163.2,105.4,159.2,111.2,158.2z"/>
	<path id="XMLID_14_" class="st5" d="M139.1,211.3c0,0-7.4-4.9-12.4-5.7c-23.9-3.7-53.1,6.8-53.1,30.5c13.1,21,42,42.5,72.5,42.5
		s59.1-13.8,80-45.3c-0.4-19.1-31.5-29.6-55.1-29.6C151,203.6,139.1,211.3,139.1,211.3z"/>
	<path id="XMLID_10_" class="st4" d="M137.2,154.5c0,0,4.1,5.5-8.1,6.9c-10.5,1.3-9.1-5.1-9.1-5.1
		C123.8,155.5,135.3,154.5,137.2,154.5z"/>
	<path id="XMLID_13_" class="st4" d="M222.5,238.2c0,0-5.6-6.1-15.4,4.2c-9.9,10.3-3.1,15.3-3.1,15.3
		C213.3,250.6,222.5,238.2,222.5,238.2z"/>
	<path id="XMLID_11_" class="st4" d="M77,237.6c0,0,5.2-7.3,15.2,3c9.9,10.3,1.9,16,1.9,16C84.7,249.4,77,237.6,77,237.6z"/>
	<g id="XMLID_15_">
		<path id="XMLID_32_" class="st3" d="M171.1,203.7c0,0-0.8,0.1-2.3,0.2c-1.4,0.1-3.5,0.4-5.9,0.6c-1.2,0.1-2.5,0.2-4,0.5
			c-1.4,0.2-2.9,0.5-4.3,0.8c-1.4,0.4-3,0.7-4.6,1.2s-3,1.1-4.6,1.7c-1.4,0.6-2.9,1.3-4.3,2.1c-1.4,0.7-2.8,1.6-4,2.5
			c-2.4,1.8-4.6,3.7-6.3,5.5c-0.8,0.8-1.6,1.7-2.3,2.5c-0.6,0.7-1.2,1.4-1.7,2.1c-0.8,1.1-1.3,1.8-1.3,1.8s0.1-0.1,0.2-0.5
			c0.2-0.4,0.5-0.8,0.8-1.4c0.8-1.2,1.9-2.9,3.6-4.8c1.6-1.8,3.6-4,6-5.9c1.2-1,2.5-1.9,4-2.7c1.4-0.8,2.9-1.6,4.5-2.2
			c1.6-0.7,3.1-1.2,4.7-1.7s3.1-0.8,4.7-1.2c3-0.6,5.9-0.7,8.4-1c2.4-0.1,4.5-0.1,5.9-0.2C170.3,203.7,171.1,203.7,171.1,203.7z"/>
	</g>
</g>
<path class="st1" d="M242.9,78.8H57.1c-11.3,0-20.5,9.2-20.5,20.5v180.2c0,11.3,9.2,20.5,20.5,20.5h185.8c11.3,0,20.5-9.2,20.5-20.6
	V99.3C263.4,87.9,254.2,78.8,242.9,78.8z M146.5,276.6c-42.2-1.4-80.2-38.2-80.5-72.1c-0.4-41.4,49.6-49.7,83.4-49.5
	c34.9,0.2,83.6,10.3,83.4,51.6C232.5,240.7,190.5,278,146.5,276.6z"/>
<g id="XMLID_22_">
	<g id="XMLID_12_">
		<circle id="XMLID_18_" class="st6" cx="99.8" cy="120.5" r="21.8"/>
		<path id="XMLID_20_" class="st7" d="M82,118.2c4.1-13.3,13.8-13.5,13.8-13.5v6.4c0,0-7.1,2.3-7.7,7.1C88,118.2,82,118.2,82,118.2z
			"/>
	</g>
	<g id="XMLID_4_">
		<circle id="XMLID_19_" class="st6" cx="195.6" cy="120.5" r="21.8"/>
		<path id="XMLID_21_" class="st7" d="M179.6,118.2c4.2-13.3,12.7-13.5,12.7-13.5v6.5c0,0-6,2.2-6.6,7
			C185.6,118.2,179.6,118.2,179.6,118.2z"/>
	</g>
</g>
</svg>
