<?xml version="1.0" encoding="utf-8"?>
<!-- Generator: Adobe Illustrator 19.0.0, SVG Export Plug-In . SVG Version: 6.00 Build 0)  -->
<svg version="1.1" id="Layer_1" xmlns="http://www.w3.org/2000/svg" xmlns:xlink="http://www.w3.org/1999/xlink" x="0px" y="0px"
	 viewBox="0 0 757.2 553.3" style="enable-background:new 0 0 757.2 553.3;" xml:space="preserve">
<style type="text/css">
	.st0{fill:#D35B5B;}
	.st1{fill:#F2F2F2;}
	.st2{fill:#FF7BAC;}
</style>
<g id="XMLID_37_">
	<path id="XMLID_9_" class="st0" d="M646,102.8c-43.5-26.4-28.6-48.6-20.1-57C551.3,11.9,457.7,0.4,379.4,0
		c-17.1-0.1-35.1,0.3-53.6,1.3c2.8,7.1,3.8,22.9-38.7,27.8c-36.7,4.5-41.4-11.6-41.7-19.3c-12.6,2.1-25.1,4.5-37.5,7.3
		c7.6,9.3,28.3,41.9-30.5,64.3c-60.6,23.1-67.7-18.4-68.6-29C44.6,86.4-0.8,140.6,0,225.2c0.4,41.8,13.4,84.6,36,124.9
		c14.5-94.5,138-135.7,240.1-119.9c18.7,3,44.8,18.6,53.4,24c2.4-1.5,4.9-3.1,7.5-4.5c6.4-3.6,13.2-7.3,20.5-10
		c7.3-3.2,14.1-5.5,21.4-7.7c7.3-2.3,14.1-3.6,21.4-5.5c13.6-2.7,26.8-3.2,38.2-4.5c10.9-0.5,20.5-0.5,26.8-0.9
		c9.1,0.5,12.7,0.5,12.7,0.5s0,0,0,0c103.2,0.1,237.6,44.3,249.4,124.9c19.7-36.3,31-74.4,31.4-111.7c0.3-58.4-20.9-103.1-55.1-137
		C700.8,108.1,689.4,129.2,646,102.8z"/>
	<path id="XMLID_8_" class="st1" d="M646,102.8c43.4,26.3,54.8,5.3,57.7-5.1c-21.5-21.4-48.2-38.4-77.8-51.9
		C617.4,54.2,602.4,76.4,646,102.8z"/>
	<path id="XMLID_7_" class="st1" d="M177.4,81.4c58.8-22.4,38-55,30.5-64.3c-35.2,8.1-69.2,19.5-99,35.3
		C109.7,63.1,116.8,104.5,177.4,81.4z"/>
	<path id="XMLID_6_" class="st2" d="M478.1,221.5c-0.2,0-3.8,0.5-10.4,0.9c-6.4,0.5-15.9,1.8-26.8,2.7c-5.5,0.5-11.4,0.9-18.2,2.3
		c-6.4,0.9-13.2,2.3-19.6,3.6c-6.4,1.8-13.6,3.2-20.9,5.5c-7.3,2.3-13.6,5-20.9,7.7c-6.4,2.7-13.2,5.9-19.6,9.6
		c-6.4,3.2-12.7,7.3-18.2,11.4c-10.9,8.2-20.9,16.8-28.7,25c-3.6,3.6-7.3,7.7-10.5,11.4c-2.7,3.2-5.5,6.4-7.7,9.6
		c-3.2,4.4-5.3,7.4-5.8,8c-0.1,0.1-0.1,0.2-0.1,0.2s0-0.1,0.1-0.2c0.2-0.2,0.5-0.8,0.8-2.1c0.9-1.8,2.3-3.6,3.6-6.4
		c3.6-5.5,8.6-13.2,16.4-21.8c7.3-8.2,16.4-18.2,27.3-26.8c3.3-2.8,6.9-5.4,10.7-7.8c-8.7-5.4-34.7-21-53.4-24
		C174,214.4,50.5,255.6,36,350.1c4.6,8.3,9.7,16.4,15.1,24.4c5-5.6,28.1-26.3,68.1,14.9c38.2,39.7,17.8,64.4,10.8,71
		c65.2,53.4,148.7,89.9,236.3,92.8c94.6,3,187.2-33.3,258.6-88.8c-6.5-7.4-18.8-29.4,17.1-66.7c36-37.8,59.5-27,67.3-21.5
		c6.7-9.7,12.8-19.6,18.3-29.7C715.7,265.8,581.3,221.7,478.1,221.5z"/>
	<path id="XMLID_5_" class="st1" d="M287.1,29.1c42.5-4.9,41.5-20.7,38.7-27.8c-26.2,1.4-53.4,4.1-80.4,8.5
		C245.6,17.5,250.4,33.7,287.1,29.1z"/>
	<path id="XMLID_4_" class="st1" d="M641.9,397.6c-35.9,37.3-23.6,59.3-17.1,66.7c33.3-25.9,62.1-56,84.3-88.2
		C701.4,370.6,677.9,359.7,641.9,397.6z"/>
	<path id="XMLID_3_" class="st1" d="M119.2,389.4c-40-41.2-63.1-20.5-68.1-14.9C72.2,405.8,99,435,130,460.4
		C137,453.8,157.4,429.1,119.2,389.4z"/>
	<path id="XMLID_2_" class="st0" d="M291.6,288.9c-7.7,8.6-12.7,16.4-16.4,21.8c-1.4,2.7-2.7,4.5-3.6,6.4c-0.3,1.3-0.6,1.9-0.8,2.1
		c0.5-0.7,2.6-3.7,5.8-8c2.3-3.2,5-6.4,7.7-9.6c3.2-3.6,6.8-7.7,10.5-11.4c7.7-8.2,17.7-16.8,28.7-25c5.5-4.1,11.8-8.2,18.2-11.4
		c6.4-3.6,13.2-6.8,19.6-9.6c7.3-2.7,13.6-5.5,20.9-7.7c7.3-2.3,14.6-3.6,20.9-5.5c6.4-1.4,13.2-2.7,19.6-3.6
		c6.8-1.4,12.7-1.8,18.2-2.3c10.9-0.9,20.5-2.3,26.8-2.7c6.6-0.4,10.2-0.9,10.4-0.9c0,0,0,0,0,0s-3.6,0-12.7-0.5
		c-6.4,0.5-15.9,0.5-26.8,0.9c-11.4,1.4-24.6,1.8-38.2,4.5c-7.3,1.8-14.1,3.2-21.4,5.5c-7.3,2.3-14.1,4.5-21.4,7.7
		c-7.3,2.7-14.1,6.4-20.5,10c-2.6,1.4-5.1,2.9-7.5,4.5c-3.8,2.4-7.3,5-10.7,7.8C308,270.7,298.9,280.7,291.6,288.9z"/>
	<path id="XMLID_1_" class="st0" d="M270.8,319.2c-0.1,0.1-0.1,0.2-0.1,0.2S270.7,319.3,270.8,319.2z"/>
</g>
</svg>
