<?xml version="1.0" encoding="utf-8"?>
<!-- Generator: Adobe Illustrator 19.0.0, SVG Export Plug-In . SVG Version: 6.00 Build 0)  -->
<svg version="1.1" id="Layer_1" xmlns="http://www.w3.org/2000/svg" xmlns:xlink="http://www.w3.org/1999/xlink" x="0px" y="0px"
	 viewBox="0 0 397 295.5" style="enable-background:new 0 0 397 295.5;" xml:space="preserve">
<style type="text/css">
	.st0{fill:#585D75;}
	.st1{fill:#7D83AA;}
	.st2{fill:none;}
	.st3{fill:#D35B5B;}
	.st4{fill:#F2F2F2;}
	.st5{fill:#FF7BAC;}
	.st6{fill:#333333;}
	.st7{fill:#FFFFFF;}
</style>
<g id="XMLID_43_">
	<polyline id="XMLID_6_" class="st0" points="63.4,42.3 63.4,141.7 105.7,141.7 105.7,42.3 	"/>
	<polyline id="XMLID_23_" class="st0" points="292.2,42.3 292.2,141.7 334.5,141.7 334.5,42.3 	"/>
	<line id="XMLID_45_" class="st1" x1="292.2" y1="0" x2="105.7" y2="0"/>
	<polyline id="XMLID_44_" class="st1" points="105.7,0 63.4,42.3 334.5,42.3 292.2,0 	"/>
</g>
<line id="XMLID_7_" class="st2" x1="95.2" y1="42.3" x2="285.6" y2="42.3"/>
<polygon id="XMLID_2_" class="st0" points="384.5,69.2 369.5,88.9 354.9,69.4 340.5,89.1 326.3,69.4 312.1,89.1 297.8,69.4 
	283.8,89.1 269.6,69.4 255.6,89.1 241.6,69.4 227.4,89.1 213.3,69.4 199.1,89.1 185.1,69.4 170.9,89.1 156.9,69.4 142.7,89.1 
	128.7,69.4 114.6,89.1 100.4,69.4 86.4,89.1 72.2,69.4 58.2,89.1 44,69.4 28.8,89.1 13.4,69.4 13.4,151.3 384.5,151.9 "/>
<polygon id="XMLID_1_" class="st1" points="397.7,93.9 381.6,115.1 365.9,94.1 350.5,115.3 335.3,94.1 320,115.3 304.8,94.1 
	289.8,115.3 274.6,94.1 259.5,115.3 244.5,94.1 229.3,115.3 214.3,94.1 199,115.3 184,94.1 168.8,115.3 153.8,94.1 138.5,115.3 
	123.5,94.1 108.5,115.3 93.3,94.1 78.3,115.3 63,94.1 48,115.3 32.8,94.1 16.5,115.3 0,94.1 0,181.9 397.7,182.5 "/>
<g id="XMLID_30_">
	<rect id="XMLID_40_" x="29.2" y="266.1" class="st3" width="339.3" height="226.6"/>
	<path id="XMLID_8_" class="st4" d="M323.1,307.6c0,0-1.2,16.8-22.5,3.9c-21.4-12.9-6.2-23.3-6.2-23.3S316.8,299,323.1,307.6z"/>
	<path id="XMLID_9_" class="st4" d="M130.8,277.3c0,0,15.8,15.6-10.8,25.8S93.5,291,93.5,291C101.1,286.1,120.6,279.2,130.8,277.3z"
		/>
	<path id="XMLID_14_" class="st5" d="M179.8,370.6c0,0-12.9-8.7-21.8-9.9c-41.9-6.6-93,12-93,53.4c23.1,36.8,73.6,74.6,127.1,74.6
		s103.7-24.3,140.3-79.5c-0.6-33.4-55.2-51.9-96.5-51.9C200.5,357,179.8,370.6,179.8,370.6z"/>
	<path id="XMLID_10_" class="st4" d="M176.4,270.9c0,0,7.2,9.6-14.2,12.2c-18.4,2.3-16-9-16-9C152.8,272.7,173,270.9,176.4,270.9z"
		/>
	<path id="XMLID_13_" class="st4" d="M326,417.7c0,0-9.7-10.7-27.1,7.3c-17.3,18-5.4,26.9-5.4,26.9C309.8,439.4,326,417.7,326,417.7
		z"/>
	<path id="XMLID_11_" class="st4" d="M70.8,416.6c0,0,9.1-12.8,26.7,5.2c17.3,18,3.3,28.1,3.3,28.1
		C84.3,437.4,70.8,416.6,70.8,416.6z"/>
	<g id="XMLID_15_">
		<path id="XMLID_32_" class="st3" d="M235.8,357.3c0,0-1.5,0.2-4,0.4c-2.5,0.2-6.1,0.6-10.4,1.1c-2.1,0.2-4.4,0.4-7,0.8
			s-5.1,0.8-7.6,1.5c-2.5,0.6-5.3,1.3-8,2.1s-5.3,1.9-8,3c-2.5,1.1-5.1,2.3-7.6,3.6c-2.5,1.3-4.9,2.7-7,4.4c-4.2,3.2-8,6.6-11,9.7
			c-1.5,1.5-2.7,3-4,4.4c-1.1,1.3-2.1,2.5-3,3.6c-1.5,1.9-2.3,3.2-2.3,3.2s0.2-0.2,0.4-0.8c0.4-0.6,0.8-1.5,1.5-2.5
			c1.5-2.1,3.4-5.1,6.3-8.5c2.7-3.2,6.3-7,10.6-10.4c2.1-1.7,4.4-3.4,7-4.7c2.5-1.5,5.1-2.7,7.8-3.8c2.7-1.3,5.5-2.1,8.2-3
			c2.7-0.8,5.5-1.5,8.2-2.1c5.3-1.1,10.4-1.3,14.8-1.7c4.2-0.2,7.8-0.2,10.4-0.4C234.4,357.3,235.8,357.3,235.8,357.3z"/>
	</g>
</g>
<path id="XMLID_27_" class="st1" d="M361.7,138.1H36c-19.9,0-36,16.1-36,36v316c0,19.9,16.1,36,36,36h325.7c19.9,0,36-16.1,36-36.2
	V174.1C397.7,154.2,381.6,138.1,361.7,138.1z M192.7,485C118.7,482.5,52,418,51.6,358.5c-0.6-72.6,86.9-87.1,146.2-86.7
	c61.1,0.4,146.6,18,146.2,90.5C343.5,422,269.9,487.6,192.7,485z"/>
<g id="XMLID_22_">
	<g id="XMLID_12_">
		<circle id="XMLID_18_" class="st6" cx="110.8" cy="211.3" r="38.3"/>
		<path id="XMLID_20_" class="st7" d="M79.5,207.3c7.2-23.3,24.1-23.7,24.1-23.7v11.2c0,0-12.5,4-13.5,12.5
			C90.1,207.3,79.5,207.3,79.5,207.3z"/>
	</g>
	<g id="XMLID_4_">
		<circle id="XMLID_19_" class="st6" cx="278.8" cy="211.3" r="38.3"/>
		<path id="XMLID_21_" class="st7" d="M250.7,207.3c7.4-23.3,22.2-23.7,22.2-23.7V195c0,0-10.6,3.8-11.6,12.3
			C261.2,207.3,250.7,207.3,250.7,207.3z"/>
	</g>
</g>
<polyline id="XMLID_3_" class="st0" points="13.4,69.4 0,94.1 13.4,111.2 "/>
<polyline id="XMLID_5_" class="st0" points="384.5,69.2 397.7,93.9 384.5,111.2 "/>
</svg>
