<?xml version="1.0" encoding="utf-8"?>
<!-- Generator: Adobe Illustrator 19.0.0, SVG Export Plug-In . SVG Version: 6.00 Build 0)  -->
<svg version="1.1" id="Layer_1" xmlns="http://www.w3.org/2000/svg" xmlns:xlink="http://www.w3.org/1999/xlink" x="0px" y="0px"
	 viewBox="-81 133.5 397 295.5" style="enable-background:new -81 133.5 397 295.5;" xml:space="preserve">
<style type="text/css">
	.st0{fill:#585D75;}
	.st1{fill:#7D83AA;}
	.st2{fill:#D35B5B;}
	.st3{fill:#F2F2F2;}
	.st4{fill:#FF7BAC;}
	.st5{fill:#333333;}
	.st6{fill:#FFFFFF;}
</style>
<g id="XMLID_3_">
	<polyline id="XMLID_16_" class="st0" points="-17.7,175.8 -17.7,275.2 24.5,275.2 24.5,175.8 	"/>
	<polyline id="XMLID_17_" class="st0" points="210.7,175.8 210.7,275.2 252.9,275.2 252.9,175.8 	"/>
	<polyline id="XMLID_24_" class="st1" points="24.5,133.5 -17.7,175.8 252.9,175.8 210.7,133.5 	"/>
	<polygon id="XMLID_25_" class="st0" points="304.1,203.2 289.2,222.9 274.6,203.4 260.2,223.1 246,203.4 231.9,223.1 217.6,203.4 
		203.6,223.1 189.4,203.4 175.5,223.1 161.5,203.4 147.3,223.1 133.2,203.4 119.1,223.1 105.1,203.4 90.9,223.1 76.9,203.4 
		62.8,223.1 48.8,203.4 34.7,223.1 20.5,203.4 6.6,223.1 -7.6,203.4 -21.6,223.1 -35.8,203.4 -50.9,223.1 -66.3,203.4 -79.7,228.1 
		-66.3,285.3 304.1,285.9 316,227.4 	"/>
	<polygon id="XMLID_26_" class="st1" points="316,227.4 299.9,248.6 284.3,227.6 268.9,248.8 253.7,227.6 238.4,248.8 223.3,227.6 
		208.3,248.8 193.1,227.6 178,248.8 163.1,227.6 147.9,248.8 132.9,227.6 117.6,248.8 102.7,227.6 87.5,248.8 72.5,227.6 
		57.3,248.8 42.3,227.6 27.3,248.8 12.1,227.6 -2.8,248.8 -18.1,227.6 -33.1,248.8 -48.3,227.6 -64.5,248.8 -81,227.6 -81,315.4 
		316,316 	"/>
	<rect id="XMLID_28_" x="-51.9" y="399.6" class="st2" width="338.7" height="226.6"/>
	<path id="XMLID_29_" class="st3" d="M241.5,441.1c0,0-1.2,16.8-22.5,3.9c-21.4-12.9-6.2-23.3-6.2-23.3S235.2,432.5,241.5,441.1z"/>
	<path id="XMLID_31_" class="st3" d="M49.6,410.8c0,0,15.8,15.6-10.8,25.8s-26.5-12.1-26.5-12.1C19.9,419.6,39.4,412.7,49.6,410.8z"
		/>
	<path id="XMLID_33_" class="st4" d="M98.5,504.1c0,0-12.9-8.7-21.8-9.9c-41.8-6.6-92.8,12-92.8,53.4
		c23.1,36.8,73.5,74.6,126.9,74.6s103.5-24.3,140.1-79.5c-0.6-33.4-55.1-51.9-96.3-51.9C119.1,490.5,98.5,504.1,98.5,504.1z"/>
	<path id="XMLID_34_" class="st3" d="M95.1,404.4c0,0,7.2,9.6-14.2,12.2c-18.4,2.3-16-9-16-9C71.5,406.2,91.7,404.4,95.1,404.4z"/>
	<path id="XMLID_35_" class="st3" d="M244.4,551.2c0,0-9.7-10.7-27.1,7.3c-17.3,18-5.4,26.9-5.4,26.9
		C228.3,572.9,244.4,551.2,244.4,551.2z"/>
	<path id="XMLID_36_" class="st3" d="M-10.3,550.1c0,0,9.1-12.8,26.7,5.2c17.3,18,3.3,28.1,3.3,28.1
		C3.2,570.9-10.3,550.1-10.3,550.1z"/>
	<path id="XMLID_37_" class="st2" d="M154.4,490.8c0,0-1.5,0.2-4,0.4c-2.5,0.2-6.1,0.6-10.4,1.1c-2.1,0.2-4.4,0.4-7,0.8
		s-5.1,0.8-7.6,1.5c-2.5,0.6-5.3,1.3-8,2.1c-2.7,0.8-5.3,1.9-8,3c-2.5,1.1-5.1,2.3-7.6,3.6c-2.5,1.3-4.9,2.7-7,4.4
		c-4.2,3.2-8,6.6-11,9.7c-1.5,1.5-2.7,3-4,4.4c-1.1,1.3-2.1,2.5-3,3.6c-1.5,1.9-2.3,3.2-2.3,3.2s0.2-0.2,0.4-0.8
		c0.4-0.6,0.8-1.5,1.5-2.5c1.5-2.1,3.4-5.1,6.3-8.5c2.7-3.2,6.3-7,10.6-10.4c2.1-1.7,4.4-3.4,7-4.7c2.5-1.5,5.1-2.7,7.8-3.8
		c2.7-1.3,5.5-2.1,8.2-3c2.7-0.8,5.5-1.5,8.2-2.1c5.3-1.1,10.4-1.3,14.8-1.7c4.2-0.2,7.8-0.2,10.4-0.4
		C153,490.8,154.4,490.8,154.4,490.8z"/>
	<path id="XMLID_41_" class="st1" d="M280.1,271.6H-45.1c-19.9,0-35.9,16.1-35.9,36v316c0,19.9,16.1,36,35.9,36h325.1
		c19.9,0,35.9-16.1,35.9-36.2V307.6C316,287.7,299.9,271.6,280.1,271.6z M111.4,618.5C37.5,616-29.1,551.5-29.5,492
		c-0.6-72.6,86.7-87.1,145.9-86.7c61,0.4,146.3,18,145.9,90.5C261.9,555.5,188.4,621.1,111.4,618.5z"/>
	<ellipse id="XMLID_42_" class="st5" cx="29.6" cy="344.8" rx="38.2" ry="38.3"/>
	<path id="XMLID_46_" class="st6" d="M-1.6,340.8c7.2-23.3,24.1-23.7,24.1-23.7v11.2c0,0-12.5,4-13.5,12.5H-1.6z"/>
	<ellipse id="XMLID_47_" class="st5" cx="197.3" cy="344.8" rx="38.2" ry="38.3"/>
	<path id="XMLID_48_" class="st6" d="M169.3,340.8c7.4-23.3,22.2-23.7,22.2-23.7v11.4c0,0-10.6,3.8-11.6,12.3
		C179.7,340.8,169.3,340.8,169.3,340.8z"/>
</g>
</svg>
